<svg width="48" height="48" viewBox="0 0 48 48" fill="none" xmlns="http://www.w3.org/2000/svg">
<path d="M24 13.5C23.6022 13.5 23.2206 13.342 22.9393 13.0607C22.658 12.7794 22.5 12.3978 22.5 12C22.5 11.6022 22.658 11.2206 22.9393 10.9393C23.2206 10.658 23.6022 10.5 24 10.5C24.3978 10.5 24.7794 10.658 25.0607 10.9393C25.342 11.2206 25.5 11.6022 25.5 12C25.5 12.3978 25.342 12.7794 25.0607 13.0607C24.7794 13.342 24.3978 13.5 24 13.5ZM24 25.5C23.6022 25.5 23.2206 25.342 22.9393 25.0607C22.658 24.7794 22.5 24.3978 22.5 24C22.5 23.6022 22.658 23.2206 22.9393 22.9393C23.2206 22.658 23.6022 22.5 24 22.5C24.3978 22.5 24.7794 22.658 25.0607 22.9393C25.342 23.2206 25.5 23.6022 25.5 24C25.5 24.3978 25.342 24.7794 25.0607 25.0607C24.7794 25.342 24.3978 25.5 24 25.5ZM24 37.5C23.6022 37.5 23.2206 37.342 22.9393 37.0607C22.658 36.7794 22.5 36.3978 22.5 36C22.5 35.6022 22.658 35.2206 22.9393 34.9393C23.2206 34.658 23.6022 34.5 24 34.5C24.3978 34.5 24.7794 34.658 25.0607 34.9393C25.342 35.2206 25.5 35.6022 25.5 36C25.5 36.3978 25.342 36.7794 25.0607 37.0607C24.7794 37.342 24.3978 37.5 24 37.5Z" stroke="white" stroke-width="2" stroke-linecap="round" stroke-linejoin="round"/>
</svg>
