<svg width="36" height="36" viewBox="0 0 36 36" fill="none" xmlns="http://www.w3.org/2000/svg">
<path d="M15.75 9H30.375M15.75 9C15.75 9.59674 15.5129 10.169 15.091 10.591C14.669 11.0129 14.0967 11.25 13.5 11.25C12.9033 11.25 12.331 11.0129 11.909 10.591C11.4871 10.169 11.25 9.59674 11.25 9M15.75 9C15.75 8.40326 15.5129 7.83097 15.091 7.40901C14.669 6.98705 14.0967 6.75 13.5 6.75C12.9033 6.75 12.331 6.98705 11.909 7.40901C11.4871 7.83097 11.25 8.40326 11.25 9M11.25 9H5.625M15.75 27H30.375M15.75 27C15.75 27.5967 15.5129 28.169 15.091 28.591C14.669 29.0129 14.0967 29.25 13.5 29.25C12.9033 29.25 12.331 29.0129 11.909 28.591C11.4871 28.169 11.25 27.5967 11.25 27M15.75 27C15.75 26.4033 15.5129 25.831 15.091 25.409C14.669 24.9871 14.0967 24.75 13.5 24.75C12.9033 24.75 12.331 24.9871 11.909 25.409C11.4871 25.831 11.25 26.4033 11.25 27M11.25 27H5.625M24.75 18H30.375M24.75 18C24.75 18.5967 24.5129 19.169 24.091 19.591C23.669 20.0129 23.0967 20.25 22.5 20.25C21.9033 20.25 21.331 20.0129 20.909 19.591C20.4871 19.169 20.25 18.5967 20.25 18M24.75 18C24.75 17.4033 24.5129 16.831 24.091 16.409C23.669 15.9871 23.0967 15.75 22.5 15.75C21.9033 15.75 21.331 15.9871 20.909 16.409C20.4871 16.831 20.25 17.4033 20.25 18M20.25 18H5.625" stroke="white" stroke-width="2" stroke-linecap="round" stroke-linejoin="round"/>
</svg>
