<svg width="48" height="48" viewBox="0 0 48 48" fill="none" xmlns="http://www.w3.org/2000/svg">
<path d="M38.8 28.7998V23.5498C38.8 21.7596 38.0889 20.0427 36.823 18.7768C35.5572 17.511 33.8403 16.7998 32.05 16.7998H29.05C28.4533 16.7998 27.881 16.5628 27.4591 16.1408C27.0371 15.7188 26.8 15.1465 26.8 14.5498V11.5498C26.8 9.75959 26.0889 8.0427 24.823 6.77683C23.5571 5.51096 21.8403 4.7998 20.05 4.7998H16.3M16.3 30.2998H31.3M16.3 36.2998H23.8M20.8 4.7998H11.05C9.80805 4.7998 8.80005 5.8078 8.80005 7.0498V41.5498C8.80005 42.7918 9.80805 43.7998 11.05 43.7998H36.55C37.792 43.7998 38.8 42.7918 38.8 41.5498V22.7998C38.8 18.0259 36.9036 13.4475 33.528 10.0719C30.1523 6.69623 25.5739 4.7998 20.8 4.7998Z" stroke="#FAFAF9" stroke-width="2" stroke-linecap="round" stroke-linejoin="round"/>
</svg>
