<svg width="36" height="36" viewBox="0 0 36 36" fill="none" xmlns="http://www.w3.org/2000/svg">
<path d="M29.25 21.375V17.4375C29.25 16.0948 28.7166 14.8072 27.7672 13.8578C26.8178 12.9084 25.5302 12.375 24.1875 12.375H21.9375C21.4899 12.375 21.0607 12.1972 20.7443 11.8807C20.4278 11.5643 20.25 11.1351 20.25 10.6875V8.4375C20.25 7.09484 19.7166 5.80717 18.7672 4.85777C17.8178 3.90837 16.5302 3.375 15.1875 3.375H12.375M12.375 22.5H23.625M12.375 27H18M15.75 3.375H8.4375C7.506 3.375 6.75 4.131 6.75 5.0625V30.9375C6.75 31.869 7.506 32.625 8.4375 32.625H27.5625C28.494 32.625 29.25 31.869 29.25 30.9375V16.875C29.25 13.2946 27.8277 9.8608 25.2959 7.32906C22.7642 4.79732 19.3304 3.375 15.75 3.375Z" stroke="white" stroke-width="2" stroke-linecap="round" stroke-linejoin="round"/>
</svg>
