<svg width="36" height="36" viewBox="0 0 36 36" fill="none" xmlns="http://www.w3.org/2000/svg">
<path d="M5.97 12.3345C4.56668 13.9908 3.52172 15.9198 2.901 18C4.839 24.507 10.866 29.25 18 29.25C19.4895 29.25 20.9295 29.043 22.2945 28.6575M9.342 9.342C11.911 7.64679 14.9221 6.74532 18 6.75C25.134 6.75 31.1595 11.493 33.0975 17.997C32.0354 21.551 29.7556 24.6174 26.658 26.658M9.342 9.342L4.5 4.5M9.342 9.342L14.817 14.817M26.658 26.658L31.5 31.5M26.658 26.658L21.183 21.183C21.6009 20.7651 21.9324 20.269 22.1586 19.723C22.3847 19.177 22.5011 18.5917 22.5011 18.0007C22.5011 17.4098 22.3847 16.8245 22.1586 16.2785C21.9324 15.7325 21.6009 15.2364 21.183 14.8185C20.7651 14.4006 20.269 14.0691 19.723 13.8429C19.177 13.6168 18.5917 13.5004 18.0008 13.5004C17.4098 13.5004 16.8245 13.6168 16.2785 13.8429C15.7325 14.0691 15.2364 14.4006 14.8185 14.8185M21.1815 21.1815L14.82 14.82" stroke="white" stroke-width="2" stroke-linecap="round" stroke-linejoin="round"/>
</svg>
