<svg width="36" height="36" viewBox="0 0 36 36" fill="none" xmlns="http://www.w3.org/2000/svg">
<path d="M3.05402 18.483C2.9505 18.1719 2.9505 17.8356 3.05402 17.5245C5.13452 11.265 11.04 6.75 18 6.75C24.957 6.75 30.8595 11.2605 32.9445 17.517C33.0495 17.8275 33.0495 18.1635 32.9445 18.4755C30.8655 24.735 24.96 29.25 18 29.25C11.043 29.25 5.13902 24.7395 3.05402 18.483Z" stroke="white" stroke-width="2" stroke-linecap="round" stroke-linejoin="round"/>
<path d="M22.5 18C22.5 19.1935 22.0259 20.3381 21.182 21.182C20.3381 22.0259 19.1935 22.5 18 22.5C16.8065 22.5 15.6619 22.0259 14.818 21.182C13.9741 20.3381 13.5 19.1935 13.5 18C13.5 16.8065 13.9741 15.6619 14.818 14.818C15.6619 13.9741 16.8065 13.5 18 13.5C19.1935 13.5 20.3381 13.9741 21.182 14.818C22.0259 15.6619 22.5 16.8065 22.5 18Z" stroke="white" stroke-width="2" stroke-linecap="round" stroke-linejoin="round"/>
</svg>
