<svg width="36" height="36" viewBox="0 0 36 36" fill="none" xmlns="http://www.w3.org/2000/svg">
<path d="M22.11 13.4999L21.591 26.9999M14.409 26.9999L13.89 13.4999M28.842 8.68493C29.355 8.76293 29.865 8.84543 30.375 8.93393M28.842 8.68493L27.24 29.5094C27.1746 30.3573 26.7916 31.1492 26.1675 31.7268C25.5435 32.3044 24.7244 32.6252 23.874 32.6249H12.126C11.2756 32.6252 10.4565 32.3044 9.83247 31.7268C9.2084 31.1492 8.82538 30.3573 8.76 29.5094L7.158 8.68493M28.842 8.68493C27.1108 8.4232 25.3706 8.22457 23.625 8.08943M7.158 8.68493C6.645 8.76143 6.135 8.84393 5.625 8.93243M7.158 8.68493C8.8892 8.42321 10.6294 8.22457 12.375 8.08943M23.625 8.08943V6.71543C23.625 4.94543 22.26 3.46943 20.49 3.41393C18.8304 3.36088 17.1696 3.36088 15.51 3.41393C13.74 3.46943 12.375 4.94693 12.375 6.71543V8.08943M23.625 8.08943C19.8806 7.80004 16.1194 7.80004 12.375 8.08943" stroke="white" stroke-width="2" stroke-linecap="round" stroke-linejoin="round"/>
</svg>
