<svg width="36" height="36" viewBox="0 0 36 36" fill="none" xmlns="http://www.w3.org/2000/svg">
<path d="M4.2047 16.8891C3.85002 16.5344 3.27498 16.5344 2.9203 16.8891C2.56563 17.2437 2.56563 17.8188 2.9203 18.1734L4.2047 16.8891ZM11.0625 25.0313L10.4203 25.6734C10.6048 25.8579 10.8596 25.9541 11.1199 25.9376C11.3803 25.9211 11.6209 25.7935 11.7806 25.5872L11.0625 25.0313ZM23.0306 11.056C23.3377 10.6594 23.2651 10.0889 22.8685 9.78186C22.4719 9.4748 21.9014 9.54741 21.5944 9.94402L23.0306 11.056ZM19.5409 21.8212L18.8621 21.2178L17.6553 22.5754L18.3341 23.1788L19.5409 21.8212ZM22.3125 25.5L21.7091 26.1788C21.899 26.3475 22.1508 26.4291 22.4035 26.4036C22.6562 26.3782 22.8867 26.2481 23.0391 26.0449L22.3125 25.5ZM34.2891 11.0449C34.59 10.6437 34.5087 10.0744 34.1074 9.77344C33.7062 9.47249 33.1369 9.55381 32.8359 9.95508L34.2891 11.0449ZM2.9203 18.1734L10.4203 25.6734L11.7047 24.3891L4.2047 16.8891L2.9203 18.1734ZM11.7806 25.5872L23.0306 11.056L21.5944 9.94402L10.3444 24.4753L11.7806 25.5872ZM18.3341 23.1788L21.7091 26.1788L22.9159 24.8212L19.5409 21.8212L18.3341 23.1788ZM23.0391 26.0449L34.2891 11.0449L32.8359 9.95508L21.5859 24.9551L23.0391 26.0449Z" fill="white"/>
</svg>
