<svg width="36" height="36" viewBox="0 0 36 36" fill="none" xmlns="http://www.w3.org/2000/svg">
<path d="M19 6C19 5.44772 18.5523 5 18 5C17.4477 5 17 5.44772 17 6H19ZM17 7.5C17 8.05228 17.4477 8.5 18 8.5C18.5523 8.5 19 8.05228 19 7.5H17ZM27 23C26.4477 23 26 23.4477 26 24C26 24.5523 26.4477 25 27 25V23ZM30 25C30.5523 25 31 24.5523 31 24C31 23.4477 30.5523 23 30 23V25ZM18 24V23C17.4477 23 17 23.4477 17 24H18ZM21 25C21.5523 25 22 24.5523 22 24C22 23.4477 21.5523 23 21 23V25ZM17 30C17 30.5523 17.4477 31 18 31C18.5523 31 19 30.5523 19 30H17ZM19 13.5C19 12.9477 18.5523 12.5 18 12.5C17.4477 12.5 17 12.9477 17 13.5H19ZM18 18H17C17 18.5523 17.4477 19 18 19V18ZM24 29C23.4477 29 23 29.4477 23 30C23 30.5523 23.4477 31 24 31V29ZM30 31C30.5523 31 31 30.5523 31 30C31 29.4477 30.5523 29 30 29V31ZM6 17C5.44772 17 5 17.4477 5 18C5 18.5523 5.44772 19 6 19V17ZM12 19C12.5523 19 13 18.5523 13 18C13 17.4477 12.5523 17 12 17V19ZM18.015 19C18.5673 19 19.015 18.5523 19.015 18C19.015 17.4477 18.5673 17 18.015 17V19ZM24.015 19C24.5673 19 25.015 18.5523 25.015 18C25.015 17.4477 24.5673 17 24.015 17V19ZM30 17C29.4477 17 29 17.4477 29 18C29 18.5523 29.4477 19 30 19V17ZM30.015 19C30.5673 19 31.015 18.5523 31.015 18C31.015 17.4477 30.5673 17 30.015 17V19ZM7.5 7H10.5V5H7.5V7ZM11 7.5V10.5H13V7.5H11ZM10.5 11H7.5V13H10.5V11ZM7 10.5V7.5H5V10.5H7ZM7.5 11C7.22386 11 7 10.7761 7 10.5H5C5 11.8807 6.11929 13 7.5 13V11ZM11 10.5C11 10.7761 10.7761 11 10.5 11V13C11.8807 13 13 11.8807 13 10.5H11ZM10.5 7C10.7761 7 11 7.22386 11 7.5H13C13 6.11929 11.8807 5 10.5 5V7ZM7.5 5C6.11929 5 5 6.11929 5 7.5H7C7 7.22386 7.22386 7 7.5 7V5ZM25.5 7H28.5V5H25.5V7ZM29 7.5V10.5H31V7.5H29ZM28.5 11H25.5V13H28.5V11ZM25 10.5V7.5H23V10.5H25ZM25.5 11C25.2239 11 25 10.7761 25 10.5H23C23 11.8807 24.1193 13 25.5 13V11ZM29 10.5C29 10.7761 28.7761 11 28.5 11V13C29.8807 13 31 11.8807 31 10.5H29ZM28.5 7C28.7761 7 29 7.22386 29 7.5H31C31 6.11929 29.8807 5 28.5 5V7ZM25.5 5C24.1193 5 23 6.11929 23 7.5H25C25 7.22386 25.2239 7 25.5 7V5ZM7.5 25H10.5V23H7.5V25ZM11 25.5V28.5H13V25.5H11ZM10.5 29H7.5V31H10.5V29ZM7 28.5V25.5H5V28.5H7ZM7.5 29C7.22386 29 7 28.7761 7 28.5H5C5 29.8807 6.11929 31 7.5 31V29ZM11 28.5C11 28.7761 10.7761 29 10.5 29V31C11.8807 31 13 29.8807 13 28.5H11ZM10.5 25C10.7761 25 11 25.2239 11 25.5H13C13 24.1193 11.8807 23 10.5 23V25ZM7.5 23C6.11929 23 5 24.1193 5 25.5H7C7 25.2239 7.22386 25 7.5 25V23ZM17 6V7.5H19V6H17ZM27 25H30V23H27V25ZM18 25H21V23H18V25ZM17 24V30H19V24H17ZM17 13.5V18H19V13.5H17ZM24 31H30V29H24V31ZM6 19H12V17H6V19ZM18 19H18.015V17H18V19ZM30 19H30.015V17H30V19ZM18 19H24.015V17H18V19Z" fill="white"/>
</svg>
