<svg width="100" height="100" viewBox="0 0 100 100" fill="none" xmlns="http://www.w3.org/2000/svg">
<path fill-rule="evenodd" clip-rule="evenodd" d="M60.3218 18.5087L90.6084 71.0717C91.2749 72.6407 91.5665 73.9164 91.6499 75.2418C91.8165 78.3383 90.7334 81.3482 88.6087 83.6644C86.4841 85.9724 83.6096 87.3348 80.4851 87.5H19.4954C18.2039 87.4216 16.9125 87.1284 15.7043 86.6742C9.66368 84.2383 6.7475 77.3846 9.20542 71.4433L39.7003 18.4716C40.7418 16.6095 42.3248 15.0034 44.2828 13.9712C49.9486 10.8293 57.1557 12.8936 60.3218 18.5087ZM53.6147 53.1493C53.6147 55.1311 51.99 56.7868 49.9903 56.7868C47.9906 56.7868 46.3243 55.1311 46.3243 53.1493V41.4691C46.3243 39.4832 47.9906 37.8771 49.9903 37.8771C51.99 37.8771 53.6147 39.4832 53.6147 41.4691V53.1493ZM49.9903 70.9066C47.9906 70.9066 46.3243 69.251 46.3243 67.2733C46.3243 65.2874 47.9906 63.6359 49.9903 63.6359C51.99 63.6359 53.6147 65.2502 53.6147 67.2279C53.6147 69.251 51.99 70.9066 49.9903 70.9066Z" fill="#EF4444"/>
</svg>
