<svg width="400" height="250" viewBox="0 0 400 250" fill="none" xmlns="http://www.w3.org/2000/svg">
<g clip-path="url(#clip0_462_11464)">
<g clip-path="url(#clip1_462_11464)">
<path d="M296.306 88.1652C296.306 88.1652 286.906 14.6097 231.445 67.4928C160.348 135.281 112.557 0.550316 59.8153 55.5461C31.0014 85.59 107.142 152.783 56.2908 188.144C5.43975 223.505 46.9942 249.977 46.9942 249.977H335.739C335.739 249.977 365.631 252.136 367.894 214.312C370.153 176.489 335.406 176.03 356.971 128.697C378.536 81.3647 303.083 118.292 296.306 88.1652Z" fill="#404040"/>
<mask id="mask0_462_11464" style="mask-type:alpha" maskUnits="userSpaceOnUse" x="31" y="42" width="337" height="208">
<path d="M296.306 88.1652C296.306 88.1652 286.906 14.6097 231.445 67.4928C160.348 135.281 112.557 0.550316 59.8153 55.5461C31.0014 85.59 107.142 152.783 56.2908 188.144C5.43975 223.505 46.9942 249.977 46.9942 249.977H335.739C335.739 249.977 365.631 252.136 367.894 214.312C370.153 176.489 335.406 176.03 356.971 128.697C378.536 81.3647 303.083 118.292 296.306 88.1652Z" fill="#44403C"/>
</mask>
<g mask="url(#mask0_462_11464)">
<rect opacity="0.45" x="96" y="38" width="160" height="142" fill="#9CA3AF"/>
<path opacity="0.45" d="M87.2207 189.604H265.055L258.566 199.208C258.305 199.594 257.87 199.825 257.404 199.825H94.8716C94.406 199.825 93.9707 199.594 93.7099 199.208L87.2207 189.604Z" fill="url(#paint0_linear_462_11464)"/>
<rect opacity="0.45" x="77" y="185.517" width="198.275" height="2.04408" fill="url(#paint1_linear_462_11464)"/>
<rect x="100.508" y="50.6074" width="151.262" height="3.06611" fill="#9CA3AF"/>
<rect x="100.508" y="60.8281" width="151.262" height="3.06611" fill="#9CA3AF"/>
<rect x="100.508" y="71.0479" width="151.262" height="3.06611" fill="#9CA3AF"/>
<rect x="100.508" y="81.2686" width="151.262" height="3.06611" fill="#9CA3AF"/>
<rect x="100.508" y="91.4883" width="151.262" height="3.06611" fill="#9CA3AF"/>
<rect x="100.508" y="101.709" width="151.262" height="3.06611" fill="#9CA3AF"/>
<rect x="100.508" y="111.93" width="151.262" height="3.06611" fill="#9CA3AF"/>
<rect x="100.508" y="122.15" width="151.262" height="3.06611" fill="#9CA3AF"/>
<rect x="100.508" y="132.37" width="151.262" height="3.06611" fill="#9CA3AF"/>
<rect x="100.508" y="55.7178" width="151.262" height="3.06611" fill="#9CA3AF"/>
<rect x="100.508" y="65.9375" width="151.262" height="3.06611" fill="#9CA3AF"/>
<rect x="100.508" y="76.1582" width="151.262" height="3.06611" fill="#9CA3AF"/>
<rect x="100.508" y="86.3789" width="151.262" height="3.06611" fill="#9CA3AF"/>
<rect x="100.508" y="96.5986" width="151.262" height="3.06611" fill="#9CA3AF"/>
<rect x="100.508" y="106.819" width="151.262" height="3.06611" fill="#9CA3AF"/>
<rect x="100.508" y="117.04" width="151.262" height="3.06611" fill="#9CA3AF"/>
<rect x="100.508" y="127.26" width="151.262" height="3.06611" fill="#9CA3AF"/>
<rect x="100.508" y="137.48" width="151.262" height="3.06611" fill="#9CA3AF"/>
<rect x="106.638" y="50.6074" width="1.02204" height="103.226" fill="url(#paint2_linear_462_11464)"/>
<path d="M105.311 153.512C105.311 153.124 105.624 152.811 106.012 152.811H108.289C108.676 152.811 108.99 153.124 108.99 153.512V156.155H105.311V153.512Z" fill="url(#paint3_linear_462_11464)"/>
<path d="M104.235 156.647C104.327 156.355 104.598 156.156 104.904 156.156H109.394C109.7 156.156 109.971 156.355 110.063 156.647L111.462 161.099C111.604 161.55 111.267 162.01 110.793 162.01H103.505C103.032 162.01 102.694 161.55 102.836 161.099L104.235 156.647Z" fill="url(#paint4_linear_462_11464)"/>
</g>
<path d="M46.6279 249.528H321.769" stroke="#9CACCE" stroke-width="2" stroke-miterlimit="10"/>
<path d="M331.404 249.528H365.408" stroke="#9CACCE" stroke-width="2" stroke-miterlimit="10"/>
<path d="M114.244 250.955H100.023C99.6472 250.955 99.3215 250.706 99.2218 250.345L93.2091 228.582C93.0635 228.053 93.462 227.528 94.01 227.528H120.253C120.805 227.528 121.203 228.053 121.054 228.582L115.041 250.345C114.945 250.706 114.62 250.955 114.244 250.955Z" fill="url(#paint5_linear_462_11464)"/>
<path d="M111.163 227.528C111.163 227.528 110.818 218.189 118.252 208.85" stroke="#E5E7EB" stroke-width="1.14967" stroke-miterlimit="10"/>
<path d="M93.1787 213.391C101.717 210.061 102.859 227.528 102.859 227.528" stroke="#E5E7EB" stroke-width="1.14967" stroke-miterlimit="10"/>
<path d="M106.821 227.528L105.399 214.924" stroke="#E5E7EB" stroke-width="1.14967" stroke-miterlimit="10"/>
<path d="M117.107 217.848C113.435 218.308 111.063 214.077 113.198 211.058C113.29 210.923 113.393 210.789 113.497 210.651C116.969 206.198 121.548 203.336 130.588 206.539C130.765 206.601 130.723 206.865 130.535 206.865C128.132 206.892 122.077 207.39 121.487 211.621C120.893 215.921 119.145 217.591 117.107 217.848Z" fill="#E5E7EB"/>
<path d="M105.238 195C105.238 195 105.181 205.385 107.254 207.727C109.323 210.072 108.523 216.2 105.403 215.924C102.28 215.644 97.7732 205.504 105.238 195Z" fill="#E5E7EB"/>
<path d="M84.9545 223.401C84.9545 223.401 84.8357 214.139 91.4386 212.089C97.6506 210.157 96.4205 220.374 84.9545 223.401Z" fill="#E5E7EB"/>
</g>
<path d="M134.634 127.65V123H152.604V127.65L140.342 142.444H152.816V147.094H134V142.444L146.262 127.65H134.634Z" fill="#D1D5DB"/>
<path d="M157.423 152.959V150H169.051V152.959L161.228 162.47H169.262V165.428H157V162.47L164.822 152.959H157.423Z" fill="#D1D5DB"/>
<path d="M155.067 249.676L254.498 249.404C255.226 249.4 255.866 248.91 256.05 248.205L275.913 172.445C276.181 171.422 275.407 170.426 274.353 170.43L174.922 170.702C174.194 170.706 173.554 171.196 173.37 171.901L153.508 247.66C153.239 248.68 154.013 249.68 155.067 249.676Z" fill="#71717A"/>
<path d="M294.284 249.676L194.923 249.404C194.179 249.4 193.528 248.898 193.34 248.178L173.497 172.484C173.225 171.441 174.01 170.422 175.091 170.426L274.453 170.698C275.196 170.702 275.848 171.204 276.035 171.924L295.879 247.614C296.151 248.661 295.361 249.68 294.284 249.676Z" fill="white"/>
<path d="M280.275 188.578L276.019 171.865C275.83 171.132 275.173 170.621 274.424 170.617L174.78 170.426C173.695 170.422 173.247 171.159 173.521 172.22L177.92 189L280.275 188.578Z" fill="url(#paint6_linear_462_11464)"/>
<path d="M195.834 182.294C196.667 182.066 197.053 180.822 196.695 179.516C196.338 178.209 195.373 177.335 194.54 177.562C193.707 177.79 193.322 179.034 193.679 180.34C194.036 181.647 195.001 182.522 195.834 182.294Z" fill="white"/>
<path d="M225.913 182.295C226.746 182.067 227.132 180.823 226.774 179.517C226.417 178.21 225.452 177.336 224.62 177.563C223.787 177.791 223.401 179.035 223.758 180.341C224.115 181.648 225.08 182.523 225.913 182.295Z" fill="white"/>
<path d="M255.996 182.296C256.829 182.068 257.215 180.824 256.857 179.518C256.5 178.211 255.535 177.337 254.703 177.564C253.87 177.792 253.484 179.036 253.841 180.342C254.198 181.649 255.163 182.524 255.996 182.296Z" fill="white"/>
<path d="M182.023 167.341C183.353 163.59 186.473 160.953 190.102 160.953C194.946 160.953 198.87 165.636 198.87 171.411C198.87 175.021 197.337 178.202 195.003 180.084" stroke="url(#paint7_linear_462_11464)" stroke-width="2" stroke-miterlimit="10" stroke-linecap="round"/>
<path d="M212.003 167.341C213.333 163.59 216.452 160.953 220.081 160.953C224.925 160.953 228.849 165.636 228.849 171.411C228.849 175.021 227.316 178.202 224.983 180.084" stroke="url(#paint8_linear_462_11464)" stroke-width="2" stroke-miterlimit="10" stroke-linecap="round"/>
<path d="M241.979 167.341C243.308 163.59 246.428 160.953 250.057 160.953C254.901 160.953 258.825 165.636 258.825 171.411C258.825 175.021 257.292 178.202 254.958 180.084" stroke="url(#paint9_linear_462_11464)" stroke-width="2" stroke-miterlimit="10" stroke-linecap="round"/>
<mask id="path-47-inside-1_462_11464" fill="white">
<path d="M197.861 195.298L203.909 217.839L205.422 223.472L206.906 229.117C207.86 232.888 208.818 236.659 209.699 240.449L209.661 240.461C208.569 236.724 207.553 232.969 206.534 229.217L205.055 223.572L203.61 217.919L197.819 195.309L197.861 195.298Z"/>
</mask>
<path d="M197.861 195.298L201.725 194.261L200.684 190.382L196.809 191.439L197.861 195.298ZM203.909 217.839L200.045 218.875L200.046 218.877L203.909 217.839ZM205.422 223.472L209.291 222.456L209.288 222.445L209.285 222.434L205.422 223.472ZM206.906 229.117L210.783 228.136L210.779 228.118L210.774 228.101L206.906 229.117ZM209.699 240.449L210.85 244.28L214.446 243.2L213.595 239.543L209.699 240.449ZM209.661 240.461L205.822 241.583L206.952 245.45L210.811 244.292L209.661 240.461ZM206.534 229.217L202.664 230.231L202.669 230.248L202.674 230.266L206.534 229.217ZM205.055 223.572L201.179 224.563L201.182 224.574L201.185 224.586L205.055 223.572ZM203.61 217.919L207.485 216.929L207.485 216.927L203.61 217.919ZM197.819 195.309L196.767 191.45L192.967 192.487L193.944 196.302L197.819 195.309ZM193.998 196.334L200.045 218.875L207.772 216.803L201.725 194.261L193.998 196.334ZM200.046 218.877L201.559 224.51L209.285 222.434L207.772 216.801L200.046 218.877ZM201.554 224.489L203.037 230.134L210.774 228.101L209.291 222.456L201.554 224.489ZM203.028 230.098C203.985 233.879 204.932 237.61 205.803 241.355L213.595 239.543C212.703 235.708 211.735 231.897 210.783 228.136L203.028 230.098ZM208.549 236.618L208.511 236.63L210.811 244.292L210.85 244.28L208.549 236.618ZM213.5 239.338C212.421 235.646 211.416 231.931 210.394 228.168L202.674 230.266C203.69 234.006 204.716 237.802 205.822 241.583L213.5 239.338ZM210.403 228.203L208.924 222.558L201.185 224.586L202.664 230.231L210.403 228.203ZM208.93 222.581L207.485 216.929L199.734 218.91L201.179 224.563L208.93 222.581ZM207.485 216.927L201.694 194.317L193.944 196.302L199.735 218.912L207.485 216.927ZM198.872 199.168L198.914 199.157L196.809 191.439L196.767 191.45L198.872 199.168Z" fill="#6B7280" mask="url(#path-47-inside-1_462_11464)"/>
<mask id="path-49-inside-2_462_11464" fill="white">
<path d="M215.202 195.298L221.25 217.839L222.763 223.472L224.246 229.117C225.201 232.888 226.159 236.659 227.04 240.449L227.002 240.461C225.91 236.724 224.894 232.969 223.875 229.217L222.395 223.572L220.951 217.919L215.16 195.309L215.202 195.298Z"/>
</mask>
<path d="M215.202 195.298L219.066 194.261L218.025 190.382L214.15 191.439L215.202 195.298ZM221.25 217.839L217.386 218.875L217.387 218.877L221.25 217.839ZM222.763 223.472L226.632 222.456L226.629 222.445L226.626 222.434L222.763 223.472ZM224.246 229.117L228.124 228.136L228.12 228.118L228.115 228.101L224.246 229.117ZM227.04 240.449L228.19 244.28L231.787 243.2L230.936 239.543L227.04 240.449ZM227.002 240.461L223.162 241.583L224.293 245.45L228.152 244.292L227.002 240.461ZM223.875 229.217L220.005 230.231L220.01 230.248L220.015 230.266L223.875 229.217ZM222.395 223.572L218.52 224.563L218.523 224.574L218.526 224.586L222.395 223.572ZM220.951 217.919L224.826 216.929L224.826 216.927L220.951 217.919ZM215.16 195.309L214.108 191.45L210.308 192.487L211.285 196.302L215.16 195.309ZM211.339 196.334L217.386 218.875L225.113 216.803L219.066 194.261L211.339 196.334ZM217.387 218.877L218.9 224.51L226.626 222.434L225.113 216.801L217.387 218.877ZM218.895 224.489L220.378 230.134L228.115 228.101L226.632 222.456L218.895 224.489ZM220.369 230.098C221.325 233.879 222.273 237.61 223.144 241.355L230.936 239.543C230.044 235.708 229.076 231.897 228.124 228.136L220.369 230.098ZM225.89 236.618L225.851 236.63L228.152 244.292L228.19 244.28L225.89 236.618ZM230.841 239.338C229.762 235.646 228.757 231.931 227.735 228.168L220.015 230.266C221.031 234.006 222.057 237.802 223.162 241.583L230.841 239.338ZM227.744 228.203L226.265 222.558L218.526 224.586L220.005 230.231L227.744 228.203ZM226.271 222.581L224.826 216.929L217.075 218.91L218.52 224.563L226.271 222.581ZM224.826 216.927L219.035 194.317L211.285 196.302L217.076 218.912L224.826 216.927ZM216.213 199.168L216.255 199.157L214.15 191.439L214.108 191.45L216.213 199.168Z" fill="#6B7280" mask="url(#path-49-inside-2_462_11464)"/>
<mask id="path-51-inside-3_462_11464" fill="white">
<path d="M232.543 195.298L238.59 217.839L240.104 223.472L241.587 229.117C242.541 232.888 243.499 236.659 244.381 240.449L244.343 240.461C243.25 236.724 242.235 232.969 241.215 229.217L239.736 223.572L238.291 217.919L232.501 195.309L232.543 195.298Z"/>
</mask>
<path d="M232.543 195.298L236.407 194.261L235.366 190.382L231.491 191.439L232.543 195.298ZM238.59 217.839L234.727 218.875L234.727 218.877L238.59 217.839ZM240.104 223.472L243.973 222.456L243.97 222.445L243.967 222.434L240.104 223.472ZM241.587 229.117L245.465 228.136L245.461 228.118L245.456 228.101L241.587 229.117ZM244.381 240.449L245.532 244.28L249.127 243.2L248.277 239.543L244.381 240.449ZM244.343 240.461L240.503 241.583L241.634 245.451L245.493 244.291L244.343 240.461ZM241.215 229.217L237.346 230.231L237.351 230.248L237.355 230.266L241.215 229.217ZM239.736 223.572L235.861 224.562L235.864 224.574L235.867 224.586L239.736 223.572ZM238.291 217.919L242.167 216.929L242.166 216.927L238.291 217.919ZM232.501 195.309L231.449 191.45L227.649 192.486L228.626 196.302L232.501 195.309ZM228.68 196.334L234.727 218.875L242.454 216.803L236.407 194.261L228.68 196.334ZM234.727 218.877L236.241 224.51L243.967 222.434L242.453 216.801L234.727 218.877ZM236.235 224.489L237.718 230.134L245.456 228.101L243.973 222.456L236.235 224.489ZM237.709 230.098C238.666 233.879 239.614 237.61 240.485 241.355L248.277 239.543C247.385 235.708 246.417 231.897 245.465 228.136L237.709 230.098ZM243.23 236.618L243.192 236.63L245.493 244.291L245.532 244.28L243.23 236.618ZM248.182 239.338C247.103 235.646 246.098 231.931 245.075 228.168L237.355 230.266C238.372 234.007 239.398 237.802 240.503 241.583L248.182 239.338ZM245.085 228.203L243.606 222.558L235.867 224.586L237.346 230.231L245.085 228.203ZM243.612 222.581L242.167 216.929L234.416 218.91L235.861 224.562L243.612 222.581ZM242.166 216.927L236.376 194.317L228.626 196.302L234.417 218.912L242.166 216.927ZM233.553 199.169L233.595 199.157L231.491 191.439L231.449 191.45L233.553 199.169Z" fill="#6B7280" mask="url(#path-51-inside-3_462_11464)"/>
<mask id="path-53-inside-4_462_11464" fill="white">
<path d="M249.88 195.298L255.927 217.839L257.441 223.472L258.924 229.117C259.878 232.888 260.836 236.659 261.718 240.449L261.679 240.461C260.587 236.724 259.572 232.969 258.552 229.217L257.073 223.572L255.628 217.919L249.838 195.309L249.88 195.298Z"/>
</mask>
<path d="M249.88 195.298L253.743 194.261L252.703 190.382L248.828 191.439L249.88 195.298ZM255.927 217.839L252.064 218.875L252.064 218.877L255.927 217.839ZM257.441 223.472L261.31 222.456L261.307 222.445L261.304 222.434L257.441 223.472ZM258.924 229.117L262.802 228.136L262.797 228.118L262.793 228.101L258.924 229.117ZM261.718 240.449L262.868 244.28L266.464 243.2L265.614 239.543L261.718 240.449ZM261.679 240.461L257.84 241.583L258.971 245.451L262.83 244.291L261.679 240.461ZM258.552 229.217L254.683 230.231L254.688 230.248L254.692 230.266L258.552 229.217ZM257.073 223.572L253.198 224.562L253.201 224.574L253.204 224.586L257.073 223.572ZM255.628 217.919L259.504 216.929L259.503 216.927L255.628 217.919ZM249.838 195.309L248.786 191.45L244.986 192.486L245.963 196.302L249.838 195.309ZM246.017 196.334L252.064 218.875L259.791 216.803L253.743 194.261L246.017 196.334ZM252.064 218.877L253.578 224.51L261.304 222.434L259.79 216.801L252.064 218.877ZM253.572 224.489L255.055 230.134L262.793 228.101L261.31 222.456L253.572 224.489ZM255.046 230.098C256.003 233.879 256.951 237.61 257.822 241.355L265.614 239.543C264.722 235.708 263.754 231.897 262.802 228.136L255.046 230.098ZM260.567 236.618L260.529 236.63L262.83 244.291L262.868 244.28L260.567 236.618ZM265.519 239.338C264.44 235.646 263.435 231.931 262.412 228.168L254.692 230.266C255.709 234.006 256.735 237.802 257.84 241.583L265.519 239.338ZM262.422 228.203L260.942 222.558L253.204 224.586L254.683 230.231L262.422 228.203ZM260.949 222.581L259.504 216.929L251.753 218.91L253.198 224.562L260.949 222.581ZM259.503 216.927L253.713 194.317L245.963 196.302L251.753 218.912L259.503 216.927ZM250.89 199.169L250.932 199.157L248.828 191.439L248.786 191.45L250.89 199.169Z" fill="#6B7280" mask="url(#path-53-inside-4_462_11464)"/>
<mask id="path-55-inside-5_462_11464" fill="white">
<path d="M267.221 195.298L273.268 217.839L274.782 223.472L276.265 229.117C277.219 232.888 278.177 236.659 279.059 240.449L279.02 240.461C277.928 236.724 276.913 232.969 275.893 229.217L274.414 223.572L272.969 217.919L267.179 195.309L267.221 195.298Z"/>
</mask>
<path d="M267.221 195.298L271.084 194.261L270.044 190.382L266.169 191.439L267.221 195.298ZM273.268 217.839L269.405 218.875L269.405 218.877L273.268 217.839ZM274.782 223.472L278.651 222.456L278.648 222.445L278.645 222.434L274.782 223.472ZM276.265 229.117L280.143 228.136L280.138 228.118L280.134 228.101L276.265 229.117ZM279.059 240.449L280.209 244.28L283.805 243.2L282.955 239.543L279.059 240.449ZM279.02 240.461L275.181 241.583L276.312 245.451L280.171 244.291L279.02 240.461ZM275.893 229.217L272.024 230.231L272.028 230.248L272.033 230.266L275.893 229.217ZM274.414 223.572L270.539 224.562L270.542 224.574L270.545 224.586L274.414 223.572ZM272.969 217.919L276.845 216.929L276.844 216.927L272.969 217.919ZM267.179 195.309L266.127 191.45L262.327 192.486L263.304 196.302L267.179 195.309ZM263.357 196.334L269.405 218.875L277.132 216.803L271.084 194.261L263.357 196.334ZM269.405 218.877L270.919 224.51L278.645 222.434L277.131 216.801L269.405 218.877ZM270.913 224.489L272.396 230.134L280.134 228.101L278.651 222.456L270.913 224.489ZM272.387 230.098C273.344 233.879 274.292 237.61 275.163 241.355L282.955 239.543C282.063 235.708 281.094 231.897 280.143 228.136L272.387 230.098ZM277.908 236.618L277.87 236.63L280.171 244.291L280.209 244.28L277.908 236.618ZM282.86 239.338C281.78 235.646 280.776 231.931 279.753 228.168L272.033 230.266C273.05 234.006 274.076 237.802 275.181 241.583L282.86 239.338ZM279.763 228.203L278.283 222.558L270.545 224.586L272.024 230.231L279.763 228.203ZM278.289 222.581L276.845 216.929L269.094 218.91L270.539 224.562L278.289 222.581ZM276.844 216.927L271.054 194.317L263.304 196.302L269.094 218.912L276.844 216.927ZM268.231 199.169L268.273 199.157L266.169 191.439L266.127 191.45L268.231 199.169Z" fill="#6B7280" mask="url(#path-55-inside-5_462_11464)"/>
<mask id="path-57-inside-6_462_11464" fill="white">
<path d="M189.113 201.64L233.464 201.506L244.55 201.468H255.637L266.723 201.537L272.269 201.571L277.81 201.64V201.679L272.269 201.744L266.723 201.782L255.637 201.851L244.55 201.847L233.464 201.813L189.113 201.679V201.64Z"/>
</mask>
<path d="M189.113 201.64L189.101 197.64L185.113 197.652V201.64H189.113ZM233.464 201.506L233.476 205.506L233.477 205.506L233.464 201.506ZM244.55 201.468V197.468L244.536 197.468L244.55 201.468ZM255.637 201.468L255.662 197.468L255.649 197.468H255.637V201.468ZM266.723 201.537L266.699 205.537H266.699L266.723 201.537ZM272.269 201.571L272.318 197.572L272.306 197.571L272.294 197.571L272.269 201.571ZM277.81 201.64H281.81V197.69L277.86 197.641L277.81 201.64ZM277.81 201.679L277.857 205.678L281.81 205.632V201.679H277.81ZM272.269 201.744L272.296 205.744L272.306 205.744L272.316 205.743L272.269 201.744ZM266.723 201.782L266.748 205.782L266.751 205.782L266.723 201.782ZM255.637 201.851L255.635 205.851L255.649 205.851L255.662 205.851L255.637 201.851ZM244.55 201.847L244.538 205.847L244.549 205.847L244.55 201.847ZM233.464 201.813L233.476 197.813L233.476 197.813L233.464 201.813ZM189.113 201.679H185.113V205.666L189.101 205.679L189.113 201.679ZM189.125 205.64L233.476 205.506L233.451 197.506L189.101 197.64L189.125 205.64ZM233.477 205.506L244.564 205.468L244.536 197.468L233.45 197.506L233.477 205.506ZM244.55 205.468H255.637V197.468H244.55V205.468ZM255.612 205.468L266.699 205.537L266.748 197.537L255.662 197.468L255.612 205.468ZM266.699 205.537L272.244 205.571L272.294 197.571L266.748 197.537L266.699 205.537ZM272.219 205.571L277.76 205.64L277.86 197.641L272.318 197.572L272.219 205.571ZM273.81 201.64V201.679H281.81V201.64H273.81ZM277.763 197.679L272.222 197.744L272.316 205.743L277.857 205.678L277.763 197.679ZM272.241 197.744L266.696 197.782L266.751 205.782L272.296 205.744L272.241 197.744ZM266.699 197.782L255.612 197.851L255.662 205.851L266.748 205.782L266.699 197.782ZM255.638 197.851L244.552 197.847L244.549 205.847L255.635 205.851L255.638 197.851ZM244.563 197.847L233.476 197.813L233.451 205.813L244.538 205.847L244.563 197.847ZM233.476 197.813L189.125 197.679L189.101 205.679L233.451 205.813L233.476 197.813ZM193.113 201.679V201.64H185.113V201.679H193.113Z" fill="#6B7280" mask="url(#path-57-inside-6_462_11464)"/>
<mask id="path-59-inside-7_462_11464" fill="white">
<path d="M191.86 215.203L236.207 215.069L247.297 215.034L258.384 215.03L269.47 215.099L275.012 215.134L280.557 215.203V215.241L275.012 215.31L269.47 215.345L258.384 215.413H247.297L236.207 215.375L191.86 215.241V215.203Z"/>
</mask>
<path d="M191.86 215.203L191.848 211.203L187.86 211.215V215.203H191.86ZM236.207 215.069L236.219 219.069L236.219 219.069L236.207 215.069ZM247.297 215.034L247.296 211.034L247.285 211.034L247.297 215.034ZM258.384 215.03L258.409 211.03L258.396 211.03L258.382 211.03L258.384 215.03ZM269.47 215.099L269.495 211.099L269.47 215.099ZM275.012 215.134L275.062 211.134L275.049 211.134L275.037 211.134L275.012 215.134ZM280.557 215.203H284.557V211.252L280.607 211.203L280.557 215.203ZM280.557 215.241L280.607 219.241L284.557 219.192V215.241H280.557ZM275.012 215.31L275.037 219.31L275.049 219.31L275.062 219.31L275.012 215.31ZM269.47 215.345L269.495 219.344H269.495L269.47 215.345ZM258.384 215.413V219.413H258.396L258.409 219.413L258.384 215.413ZM247.297 215.413L247.283 219.413H247.297V215.413ZM236.207 215.375L236.221 211.375L236.219 211.375L236.207 215.375ZM191.86 215.241H187.86V219.229L191.848 219.241L191.86 215.241ZM191.872 219.203L236.219 219.069L236.195 211.069L191.848 211.203L191.872 219.203ZM236.219 219.069L247.31 219.034L247.285 211.034L236.194 211.069L236.219 219.069ZM247.299 219.034L258.385 219.03L258.382 211.03L247.296 211.034L247.299 219.034ZM258.359 219.03L269.446 219.099L269.495 211.099L258.409 211.03L258.359 219.03ZM269.446 219.099L274.987 219.134L275.037 211.134L269.495 211.099L269.446 219.099ZM274.962 219.133L280.507 219.202L280.607 211.203L275.062 211.134L274.962 219.133ZM276.557 215.203V215.241H284.557V215.203H276.557ZM280.507 211.241L274.962 211.31L275.062 219.31L280.607 219.241L280.507 211.241ZM274.987 211.31L269.446 211.345L269.495 219.344L275.037 219.31L274.987 211.31ZM269.446 211.345L258.359 211.414L258.409 219.413L269.495 219.344L269.446 211.345ZM258.384 211.413H247.297V219.413H258.384V211.413ZM247.311 211.414L236.221 211.375L236.193 219.375L247.283 219.413L247.311 211.414ZM236.219 211.375L191.872 211.241L191.848 219.241L236.195 219.375L236.219 211.375ZM195.86 215.241V215.203H187.86V215.241H195.86Z" fill="#6B7280" mask="url(#path-59-inside-7_462_11464)"/>
<mask id="path-61-inside-8_462_11464" fill="white">
<path d="M195.19 228.768L239.537 228.634L250.627 228.596H261.714L272.801 228.665L278.342 228.699L283.887 228.768V228.806L278.342 228.875L272.801 228.91L261.714 228.979L250.627 228.975L239.537 228.941L195.19 228.806V228.768Z"/>
</mask>
<path d="M195.19 228.768L195.178 224.768L191.19 224.78V228.768H195.19ZM239.537 228.634L239.549 232.634L239.551 232.634L239.537 228.634ZM250.627 228.596V224.596L250.614 224.596L250.627 228.596ZM261.714 228.596L261.739 224.596L261.726 224.596H261.714V228.596ZM272.801 228.665L272.825 224.665H272.825L272.801 228.665ZM278.342 228.699L278.392 224.699L278.379 224.699L278.367 224.699L278.342 228.699ZM283.887 228.768H287.887V224.818L283.937 224.768L283.887 228.768ZM283.887 228.806L283.937 232.806L287.887 232.757V228.806H283.887ZM278.342 228.875L278.367 232.875L278.379 232.875L278.392 232.875L278.342 228.875ZM272.801 228.91L272.825 232.91L272.801 228.91ZM261.714 228.979L261.713 232.979L261.726 232.979L261.739 232.979L261.714 228.979ZM250.627 228.975L250.615 232.975L250.626 232.975L250.627 228.975ZM239.537 228.941L239.549 224.941L239.549 224.941L239.537 228.941ZM195.19 228.806H191.19V232.794L195.178 232.806L195.19 228.806ZM195.203 232.768L239.549 232.634L239.525 224.634L195.178 224.768L195.203 232.768ZM239.551 232.634L250.641 232.596L250.614 224.596L239.523 224.634L239.551 232.634ZM250.627 232.596H261.714V224.596H250.627V232.596ZM261.689 232.596L272.776 232.665L272.825 224.665L261.739 224.596L261.689 232.596ZM272.776 232.665L278.317 232.699L278.367 224.699L272.825 224.665L272.776 232.665ZM278.292 232.699L283.837 232.768L283.937 224.768L278.392 224.699L278.292 232.699ZM279.887 228.768V228.806H287.887V228.768H279.887ZM283.837 224.807L278.292 224.876L278.392 232.875L283.937 232.806L283.837 224.807ZM278.317 224.876L272.776 224.91L272.825 232.91L278.367 232.875L278.317 224.876ZM272.776 224.91L261.689 224.979L261.739 232.979L272.825 232.91L272.776 224.91ZM261.715 224.979L250.629 224.975L250.626 232.975L261.713 232.979L261.715 224.979ZM250.64 224.975L239.549 224.941L239.524 232.941L250.615 232.975L250.64 224.975ZM239.549 224.941L195.203 224.806L195.178 232.806L239.525 232.941L239.549 224.941ZM199.19 228.806V228.768H191.19V228.806H199.19Z" fill="#6B7280" mask="url(#path-61-inside-8_462_11464)"/>
</g>
<defs>
<linearGradient id="paint0_linear_462_11464" x1="-46.6006" y1="186.49" x2="32.485" y2="362.77" gradientUnits="userSpaceOnUse">
<stop stop-color="#C5D2EC"/>
<stop offset="0.9964" stop-color="#F1F7FE"/>
</linearGradient>
<linearGradient id="paint1_linear_462_11464" x1="103.039" y1="185.552" x2="104.184" y2="203.891" gradientUnits="userSpaceOnUse">
<stop stop-color="#B0BBCC"/>
<stop offset="1" stop-color="#8D9EB7"/>
</linearGradient>
<linearGradient id="paint2_linear_462_11464" x1="105.869" y1="19.1481" x2="108.47" y2="19.1509" gradientUnits="userSpaceOnUse">
<stop stop-color="#B8C5E0"/>
<stop offset="0.9964" stop-color="#C9D8E8"/>
</linearGradient>
<linearGradient id="paint3_linear_462_11464" x1="105.794" y1="152.868" x2="111.094" y2="153.832" gradientUnits="userSpaceOnUse">
<stop stop-color="#B0BBCC"/>
<stop offset="1" stop-color="#8D9EB7"/>
</linearGradient>
<linearGradient id="paint4_linear_462_11464" x1="103.758" y1="156.257" x2="116.581" y2="159.587" gradientUnits="userSpaceOnUse">
<stop stop-color="#B0BBCC"/>
<stop offset="1" stop-color="#8D9EB7"/>
</linearGradient>
<linearGradient id="paint5_linear_462_11464" x1="96.8438" y1="227.933" x2="136.821" y2="235.801" gradientUnits="userSpaceOnUse">
<stop stop-color="#B0BBCC"/>
<stop offset="1" stop-color="#8D9EB7"/>
</linearGradient>
<linearGradient id="paint6_linear_462_11464" x1="93.0501" y1="164.765" x2="276.831" y2="300.18" gradientUnits="userSpaceOnUse">
<stop stop-color="#C5D2EC"/>
<stop offset="0.9964" stop-color="#F1F7FE"/>
</linearGradient>
<linearGradient id="paint7_linear_462_11464" x1="184.236" y1="161.284" x2="208.784" y2="164.855" gradientUnits="userSpaceOnUse">
<stop stop-color="#B0BBCC"/>
<stop offset="1" stop-color="#8D9EB7"/>
</linearGradient>
<linearGradient id="paint8_linear_462_11464" x1="214.215" y1="161.284" x2="238.764" y2="164.855" gradientUnits="userSpaceOnUse">
<stop stop-color="#B0BBCC"/>
<stop offset="1" stop-color="#8D9EB7"/>
</linearGradient>
<linearGradient id="paint9_linear_462_11464" x1="244.191" y1="161.284" x2="268.739" y2="164.855" gradientUnits="userSpaceOnUse">
<stop stop-color="#B0BBCC"/>
<stop offset="1" stop-color="#8D9EB7"/>
</linearGradient>
<clipPath id="clip0_462_11464">
<rect width="400" height="250" fill="white"/>
</clipPath>
<clipPath id="clip1_462_11464">
<rect width="337.31" height="208.104" fill="white" transform="translate(31 42)"/>
</clipPath>
</defs>
</svg>
